<svg width="34" height="34" viewBox="0 0 34 34" fill="none" xmlns="http://www.w3.org/2000/svg">
<path d="M24.2298 17.268C24.2176 15.0558 25.2319 13.386 27.2851 12.1564C26.1363 10.5349 24.4009 9.64273 22.1095 9.46792C19.9402 9.29914 17.5693 10.7157 16.7016 10.7157C15.7851 10.7157 13.6831 9.5282 12.0332 9.5282C8.62354 9.58245 5 12.2106 5 17.5573C5 19.1366 5.29331 20.7702 5.87992 22.452C6.66206 24.6642 9.48512 30.0893 12.4304 29.9989C13.9702 29.9627 15.0579 28.9199 17.0622 28.9199C19.0053 28.9199 20.0136 29.9989 21.7306 29.9989C24.7003 29.9567 27.2545 25.0259 28 22.8076C24.0159 20.9571 24.2298 17.3825 24.2298 17.268ZM20.7713 7.37021C22.4394 5.41718 22.2867 3.63896 22.2378 3C20.7651 3.08439 19.0603 3.98857 18.0887 5.10373C17.0194 6.29725 16.39 7.77408 16.5244 9.43778C18.1193 9.55834 19.5736 8.7506 20.7713 7.37021Z" fill="white"/>
</svg>
