<svg width="88" height="88" viewBox="0 0 88 88" fill="none" xmlns="http://www.w3.org/2000/svg">
<path d="M22 7.3335L11 22.0002V73.3335C11 75.2784 11.7726 77.1437 13.1479 78.5189C14.5232 79.8942 16.3884 80.6668 18.3333 80.6668H69.6667C71.6116 80.6668 73.4768 79.8942 74.8521 78.5189C76.2274 77.1437 77 75.2784 77 73.3335V22.0002L66 7.3335H22Z" stroke="#730700" stroke-width="6" stroke-linecap="round" stroke-linejoin="round"/>
<path d="M11 22H77" stroke="#730700" stroke-width="6" stroke-linecap="round" stroke-linejoin="round"/>
<path d="M58.6666 36.6665C58.6666 40.5563 57.1214 44.2869 54.3709 47.0374C51.6203 49.7879 47.8898 51.3332 44 51.3332C40.1101 51.3332 36.3796 49.7879 33.6291 47.0374C30.8785 44.2869 29.3333 40.5563 29.3333 36.6665" stroke="#730700" stroke-width="6" stroke-linecap="round" stroke-linejoin="round"/>
</svg>
